<?xml version="1.0" encoding="iso-8859-1"?>
<!-- Generator: Adobe Illustrator 18.0.0, SVG Export Plug-In . SVG Version: 6.00 Build 0)  -->
<!DOCTYPE svg PUBLIC "-//W3C//DTD SVG 1.1//EN" "http://www.w3.org/Graphics/SVG/1.1/DTD/svg11.dtd">
<svg version="1.1" id="Capa_1" xmlns="http://www.w3.org/2000/svg" xmlns:xlink="http://www.w3.org/1999/xlink" x="0px" y="0px"
	 viewBox="0 0 136.468 136.468" style="enable-background:new 0 0 136.468 136.468;" xml:space="preserve">
<g>
	<path style="fill-rule:evenodd;clip-rule:evenodd;fill:#FFDECC;" d="M56.495,83.182c-25.951,11.377-33.736,17.443-36.813,20.166
		c-4.742,4.196-7.365,19.838-10.162,33.12h58.715h58.714c-2.797-13.281-5.42-28.924-10.162-33.12
		c-3.076-2.723-10.577-8.633-36.528-20.01L56.495,83.182z"/>
	<path style="fill-rule:evenodd;clip-rule:evenodd;fill:#FFDECC;" d="M80.835,60.504v28.767c-6.931,8.488-18.272,8.194-25.201,0
		V60.504C55.634,44.971,80.835,44.971,80.835,60.504z"/>
	<path style="fill-rule:evenodd;clip-rule:evenodd;fill:#F7C5AA;" d="M80.835,60.504v19.26c-4.768,3.476-9.364,5.423-12.601,5.423
		c-3.236,0-7.833-1.947-12.601-5.422v-19.26C55.634,44.971,80.835,44.971,80.835,60.504z"/>
	<path style="fill-rule:evenodd;clip-rule:evenodd;fill:#FFDECC;" d="M68.234,8.857c-42.292,0-27.083,51.102-24.32,55.169
		c3.046,4.486,17.487,16.376,24.32,16.376s21.273-11.89,24.319-16.376C95.317,59.959,110.526,8.857,68.234,8.857z"/>
	<path style="fill-rule:evenodd;clip-rule:evenodd;fill:#F7C5AA;" d="M54.675,59.555c3.548,2.784,23.572,2.63,27.119,0
		C78.712,74.199,58.763,74.65,54.675,59.555z"/>
	<path style="fill-rule:evenodd;clip-rule:evenodd;fill:#FFFFFF;" d="M58.888,62.2c2.445,1.462,16.248,1.38,18.693,0
		C75.456,69.888,61.706,70.125,58.888,62.2z"/>
	
		<ellipse transform="matrix(-0.3127 -0.9498 0.9498 -0.3127 5.2312 97.8703)" style="fill-rule:evenodd;clip-rule:evenodd;fill:#FFDECC;" cx="38.023" cy="47.043" rx="7.317" ry="4.231"/>
	
		<ellipse transform="matrix(0.3128 -0.9498 0.9498 0.3128 22.893 125.7273)" style="fill-rule:evenodd;clip-rule:evenodd;fill:#FFDECC;" cx="98.334" cy="47.043" rx="7.317" ry="4.231"/>
	<path style="fill-rule:evenodd;clip-rule:evenodd;fill:#FFC65D;" d="M45.427,35.345c-2.518,3.116-4.073,5.465-4.629,15.278
		c-2.025-12.258-5.389-29.501,2.713-40.602c5.515-7.558,33.432-16.527,44.924-3.14c19.358,0.284,10.071,34.715,8.956,41.556
		c-0.724-15.746-9.134-13.927-13.419-25.487C78.156,27.013,66.606,34.349,45.427,35.345z"/>
	<path style="fill-rule:evenodd;clip-rule:evenodd;fill:#497194;" d="M25.917,98.72c-3.235,2.091-5.072,3.598-6.235,4.628
		c-4.742,4.196-7.365,19.838-10.162,33.12h58.715h58.714c-2.797-13.281-5.42-28.924-10.162-33.12
		c-1.967-1.741-5.744-4.786-14.998-9.73C68.234,115.043,30.765,101.712,25.917,98.72z"/>
	<g>
		<path style="fill-rule:evenodd;clip-rule:evenodd;fill:#688DAD;" d="M16.764,107.793h102.94c0.516,1.144,1.003,2.433,1.467,3.835
			H15.297C15.762,110.225,16.249,108.937,16.764,107.793z"/>
		<path style="fill-rule:evenodd;clip-rule:evenodd;fill:#688DAD;" d="M13.391,118.396h109.687c0.307,1.246,0.604,2.528,0.896,3.836
			H12.494C12.786,120.924,13.085,119.641,13.391,118.396z"/>
		<path style="fill-rule:evenodd;clip-rule:evenodd;fill:#688DAD;" d="M11.057,128.999h114.354c0.264,1.281,0.524,2.563,0.785,3.835
			H10.273C10.532,131.562,10.794,130.28,11.057,128.999z"/>
	</g>
	<g>
		<path style="fill-rule:evenodd;clip-rule:evenodd;fill:#29445C;" d="M33.447,136.468h2.011c-0.09-8.942-0.09-15.386-0.09-15.386
			S34.478,127.779,33.447,136.468z"/>
		<path style="fill-rule:evenodd;clip-rule:evenodd;fill:#29445C;" d="M103.022,136.468h-2.012c0.09-8.942,0.09-15.386,0.09-15.386
			S101.99,127.779,103.022,136.468z"/>
	</g>
	<path style="fill-rule:evenodd;clip-rule:evenodd;fill:#27557D;" d="M80.511,54.93c0.273-0.004,0.555-0.016,0.846-0.039
		c6.403-0.502,7.884-3.172,8.486-6.543c0.66-3.701,0.666-4.991,1.686-5.333c0.748-0.252,0.903-1.08,0.844-2.043
		c-0.059-0.963-0.096-1.067-1.364-1.47c-0.991-0.314-6.415-0.766-10.497-0.537v0.998c3.203-0.156,6.296,0.202,7.213,0.739
		c2.105,1.234,1.715,7.193,0.085,10.147c-1.15,2.084-4.39,3.132-7.298,3.144V54.93z M68.187,40.926
		c-1.416,0.035-7.265-1.511-11.399-1.839c-0.263-0.021-0.533-0.038-0.811-0.052v0.998c3.332,0.146,6.779,0.847,8.02,2.492
		c2.049,2.715-1.221,9.357-4.334,10.84c-0.979,0.466-2.296,0.699-3.686,0.695v0.939c5.674,0.078,7.62-3.686,8.267-4.935
		c1.206-2.328,0.825-5.532,3.999-5.541c3.174-0.01,2.867,3.14,4.086,5.461c0.652,1.242,2.558,5.025,8.182,4.946v-0.939
		c-1.37,0.005-2.666-0.219-3.637-0.675c-3.122-1.465-6.429-8.088-4.396-10.815c1.234-1.657,4.692-2.377,8.032-2.54v-0.998
		c-0.288,0.016-0.569,0.036-0.842,0.059C75.97,39.337,71.521,40.843,68.187,40.926z M55.977,39.035
		c-4.088-0.21-9.534,0.273-10.526,0.595c-1.266,0.411-1.303,0.514-1.356,1.478c-0.054,0.964,0.106,1.791,0.856,2.038
		c1.022,0.338,1.034,1.627,1.716,5.324c0.62,3.368,2.116,6.029,8.522,6.496c0.27,0.02,0.533,0.03,0.788,0.034v-0.939
		c-2.895-0.007-6.108-1.037-7.263-3.102c-1.646-2.944-2.07-8.901,0.028-10.148c0.915-0.544,4.022-0.919,7.234-0.778V39.035z"/>
	<rect x="39.165" y="39.903" style="fill-rule:evenodd;clip-rule:evenodd;fill:#27557D;" width="6.979" height="3.018"/>
	<rect x="91.602" y="39.903" style="fill-rule:evenodd;clip-rule:evenodd;fill:#27557D;" width="6.979" height="3.018"/>
</g>
<g>
</g>
<g>
</g>
<g>
</g>
<g>
</g>
<g>
</g>
<g>
</g>
<g>
</g>
<g>
</g>
<g>
</g>
<g>
</g>
<g>
</g>
<g>
</g>
<g>
</g>
<g>
</g>
<g>
</g>
</svg>
